{"accessors":[{"bufferView":0,"byteOffset":0,"componentType":5123,"count":4038,"max":[4037],"min":[0],"name":"buffer-0-accessor-indices-buffer-0-mesh-0","type":"SCALAR"},{"bufferView":2,"byteOffset":0,"componentType":5126,"count":4038,"max":[0.7584059834480286,3.512572050094604,2.540910005569458],"min":[-0.7584059834480286,-0.01799499988555908,-6.351730823516846],"name":"buffer-0-accessor-position-buffer-0-mesh-0","type":"VEC3"},{"bufferView":2,"byteOffset":48456,"componentType":5126,"count":4038,"max":[0.9993889927864075,0.9748830199241638,0.976157009601593],"min":[-0.9993889927864075,-0.9999030232429504,-0.9869850277900696],"name":"buffer-0-accessor-normal-buffer-0-mesh-0","type":"VEC3"},{"bufferView":1,"byteOffset":0,"componentType":5126,"count":4038,"max":[0.997189998626709,0],"min":[0,-0.9976739883422852],"name":"buffer-0-accessor-texcoord-buffer-0-mesh-0","type":"VEC2"},{"bufferView":3,"byteOffset":0,"componentType":5126,"count":0,"max":[0,0,0,0],"min":[0,0,0,0],"name":"buffer-0-accessor-color-buffer-0-mesh-0","type":"VEC4"}],"asset":{"generator":"Obj2GltfConverter","version":"2.0"},"bufferViews":[{"buffer":0,"byteLength":8076,"byteOffset":0,"byteStride":0,"name":"buffer-0-bufferview-ushort","target":34963},{"buffer":0,"byteLength":32304,"byteOffset":8080,"byteStride":8,"name":"buffer-0-bufferview-vec2","target":34962},{"buffer":0,"byteLength":96912,"byteOffset":40392,"byteStride":12,"name":"buffer-0-bufferview-vec3","target":34962},{"buffer":0,"byteLength":1,"byteOffset":0,"name":"buffer-0-bufferview-vec4"}],"buffers":[{"byteLength":137312,"name":"buffer-0","uri":"data:application/octet-stream;base64,"}],"images":[{"mimeType":"image/png","name":"SquirrelMonkey_Mat-image","uri":"data:application/octet-stream;base64,"}],"materials":[{"alphaMode":"OPAQUE","doubleSided":true,"name":"SquirrelMonkey_Mat","pbrMetallicRoughness":{"baseColorFactor":[1,1,1,1],"baseColorTexture":{"index":0,"texCoord":0},"metallicFactor":0,"roughnessFactor":0.9699476628648295}}],"meshes":[{"name":"buffer-0-mesh-0","primitives":[{"attributes":{"NORMAL":2,"POSITION":1,"TEXCOORD_0":3},"indices":0,"material":0,"mode":4}]}],"nodes":[{"mesh":0,"name":"node-0"}],"samplers":[{"name":"SquirrelMonkey_Mat-sampler","wrapS":10497,"wrapT":10497}],"scenes":[{"name":"scene-0","nodes":[0]}],"textures":[{"name":"SquirrelMonkey_Mat-texture","sampler":0,"source":0}]}